<mxfile host="Electron" agent="Mozilla/5.0 (Windows NT 10.0; Win64; x64) AppleWebKit/537.36 (KHTML, like Gecko) draw.io/28.1.2 Chrome/138.0.7204.243 Electron/37.4.0 Safari/537.36" version="28.1.2">
  <diagram name="Page-1" id="e7e014a7-5840-1c2e-5031-d8a46d1fe8dd">
    <mxGraphModel dx="2658" dy="894" grid="1" gridSize="10" guides="1" tooltips="1" connect="1" arrows="1" fold="1" page="1" pageScale="1" pageWidth="1169" pageHeight="826" background="none" math="0" shadow="0">
      <root>
        <mxCell id="0" />
        <mxCell id="1" parent="0" />
        <mxCell id="2" value="Người dùng " style="swimlane;whiteSpace=wrap" parent="1" vertex="1">
          <mxGeometry x="-10" y="128" width="450" height="892" as="geometry" />
        </mxCell>
        <mxCell id="5" value="" style="ellipse;shape=startState;fillColor=#000000;strokeColor=#000000;" parent="2" vertex="1">
          <mxGeometry x="210" y="40" width="30" height="30" as="geometry" />
        </mxCell>
        <mxCell id="s9egA-n-uwzUiJ3B5Gmp-15" style="edgeStyle=orthogonalEdgeStyle;rounded=0;orthogonalLoop=1;jettySize=auto;html=1;exitX=0.5;exitY=1;exitDx=0;exitDy=0;" edge="1" parent="2" source="7">
          <mxGeometry relative="1" as="geometry">
            <mxPoint x="610" y="412" as="targetPoint" />
          </mxGeometry>
        </mxCell>
        <mxCell id="7" value="3.Chọn &quot;Chỉnh sửa&quot; trong giao diện" style="rounded=1;" parent="2" vertex="1">
          <mxGeometry x="140" y="311" width="260" height="50" as="geometry" />
        </mxCell>
        <mxCell id="ofE1IKZhP1BckV__TYuj-32" value="1.Chọn vào Playlist muốn sửa." style="rounded=1;" parent="2" vertex="1">
          <mxGeometry x="120" y="152" width="260" height="50" as="geometry" />
        </mxCell>
        <mxCell id="ofE1IKZhP1BckV__TYuj-33" style="edgeStyle=orthogonalEdgeStyle;rounded=0;orthogonalLoop=1;jettySize=auto;html=1;exitX=0.5;exitY=1;exitDx=0;exitDy=0;entryX=0.405;entryY=-0.012;entryDx=0;entryDy=0;entryPerimeter=0;" parent="2" source="5" target="ofE1IKZhP1BckV__TYuj-32" edge="1">
          <mxGeometry relative="1" as="geometry" />
        </mxCell>
        <mxCell id="s9egA-n-uwzUiJ3B5Gmp-42" value="5.Chỉnh sửa playlist theo ý muốn người dùng&#xa;(Thêm nhạc vào playlist,sửa tên,vv)" style="rounded=1;" vertex="1" parent="2">
          <mxGeometry x="130" y="502" width="260" height="50" as="geometry" />
        </mxCell>
        <mxCell id="s9egA-n-uwzUiJ3B5Gmp-51" style="edgeStyle=orthogonalEdgeStyle;rounded=0;orthogonalLoop=1;jettySize=auto;html=1;exitX=1;exitY=0.5;exitDx=0;exitDy=0;entryX=0;entryY=0.5;entryDx=0;entryDy=0;" edge="1" parent="2" source="s9egA-n-uwzUiJ3B5Gmp-45" target="s9egA-n-uwzUiJ3B5Gmp-50">
          <mxGeometry relative="1" as="geometry" />
        </mxCell>
        <mxCell id="s9egA-n-uwzUiJ3B5Gmp-45" value="" style="rhombus;whiteSpace=wrap;html=1;" vertex="1" parent="2">
          <mxGeometry x="100" y="602" width="120" height="58" as="geometry" />
        </mxCell>
        <mxCell id="s9egA-n-uwzUiJ3B5Gmp-47" value="6.Xác nhận chỉnh sửa" style="text;html=1;align=center;verticalAlign=middle;whiteSpace=wrap;rounded=0;" vertex="1" parent="2">
          <mxGeometry x="90" y="665" width="130" height="33" as="geometry" />
        </mxCell>
        <mxCell id="s9egA-n-uwzUiJ3B5Gmp-50" value="6.1 Chọn huỷ chỉnh sửa" style="rounded=1;" vertex="1" parent="2">
          <mxGeometry x="260" y="615" width="170" height="32" as="geometry" />
        </mxCell>
        <mxCell id="s9egA-n-uwzUiJ3B5Gmp-52" style="edgeStyle=orthogonalEdgeStyle;rounded=0;orthogonalLoop=1;jettySize=auto;html=1;exitX=0.5;exitY=0;exitDx=0;exitDy=0;entryX=0.115;entryY=1.074;entryDx=0;entryDy=0;entryPerimeter=0;" edge="1" parent="2" source="s9egA-n-uwzUiJ3B5Gmp-45" target="s9egA-n-uwzUiJ3B5Gmp-42">
          <mxGeometry relative="1" as="geometry" />
        </mxCell>
        <mxCell id="3" value="Hệ thống" style="swimlane;whiteSpace=wrap" parent="1" vertex="1">
          <mxGeometry x="440" y="128" width="345" height="892" as="geometry" />
        </mxCell>
        <mxCell id="uvt4-mb7bjSLwskbyc6D-67" style="edgeStyle=orthogonalEdgeStyle;rounded=0;orthogonalLoop=1;jettySize=auto;html=1;exitX=0.5;exitY=1;exitDx=0;exitDy=0;" parent="3" source="uvt4-mb7bjSLwskbyc6D-61" edge="1">
          <mxGeometry relative="1" as="geometry">
            <mxPoint x="161" y="832" as="targetPoint" />
          </mxGeometry>
        </mxCell>
        <mxCell id="uvt4-mb7bjSLwskbyc6D-61" value="7.Hệ thống cập nhật playlist, đưa người dùng về&#xa;giao diện chi tiết playlist với các chỉnh sửa đã&#xa;được thực hiện." style="rounded=1;" parent="3" vertex="1">
          <mxGeometry x="27.5" y="690" width="267.5" height="60" as="geometry" />
        </mxCell>
        <mxCell id="uvt4-mb7bjSLwskbyc6D-66" value="" style="ellipse;shape=startState;fillColor=#000000;strokeColor=#000000;" parent="3" vertex="1">
          <mxGeometry x="146.25" y="832" width="30" height="30" as="geometry" />
        </mxCell>
        <mxCell id="ofE1IKZhP1BckV__TYuj-31" value="2.Mở giao diện chi tiết playlist" style="rounded=1;" parent="3" vertex="1">
          <mxGeometry x="13" y="152" width="260" height="50" as="geometry" />
        </mxCell>
        <mxCell id="s9egA-n-uwzUiJ3B5Gmp-41" style="edgeStyle=orthogonalEdgeStyle;rounded=0;orthogonalLoop=1;jettySize=auto;html=1;exitX=0.5;exitY=1;exitDx=0;exitDy=0;" edge="1" parent="3" source="s9egA-n-uwzUiJ3B5Gmp-40">
          <mxGeometry relative="1" as="geometry">
            <mxPoint x="-195" y="502" as="targetPoint" />
          </mxGeometry>
        </mxCell>
        <mxCell id="s9egA-n-uwzUiJ3B5Gmp-40" value="4.Mở giao diện chỉnh sửa playlist" style="rounded=1;" vertex="1" parent="3">
          <mxGeometry x="27.5" y="412" width="260" height="50" as="geometry" />
        </mxCell>
        <mxCell id="ofE1IKZhP1BckV__TYuj-34" style="edgeStyle=orthogonalEdgeStyle;rounded=0;orthogonalLoop=1;jettySize=auto;html=1;exitX=1;exitY=0.5;exitDx=0;exitDy=0;entryX=0;entryY=0.5;entryDx=0;entryDy=0;" parent="1" source="ofE1IKZhP1BckV__TYuj-32" target="ofE1IKZhP1BckV__TYuj-31" edge="1">
          <mxGeometry relative="1" as="geometry" />
        </mxCell>
        <mxCell id="ofE1IKZhP1BckV__TYuj-35" style="edgeStyle=orthogonalEdgeStyle;rounded=0;orthogonalLoop=1;jettySize=auto;html=1;exitX=0.5;exitY=1;exitDx=0;exitDy=0;entryX=1;entryY=0.5;entryDx=0;entryDy=0;" parent="1" source="ofE1IKZhP1BckV__TYuj-31" target="7" edge="1">
          <mxGeometry relative="1" as="geometry" />
        </mxCell>
        <mxCell id="s9egA-n-uwzUiJ3B5Gmp-48" style="edgeStyle=orthogonalEdgeStyle;rounded=0;orthogonalLoop=1;jettySize=auto;html=1;entryX=1;entryY=0.5;entryDx=0;entryDy=0;exitX=1;exitY=0.5;exitDx=0;exitDy=0;" edge="1" parent="1" source="s9egA-n-uwzUiJ3B5Gmp-50" target="ofE1IKZhP1BckV__TYuj-31">
          <mxGeometry relative="1" as="geometry">
            <mxPoint x="440" y="760" as="sourcePoint" />
          </mxGeometry>
        </mxCell>
        <mxCell id="s9egA-n-uwzUiJ3B5Gmp-53" style="edgeStyle=orthogonalEdgeStyle;rounded=0;orthogonalLoop=1;jettySize=auto;html=1;exitX=0.5;exitY=1;exitDx=0;exitDy=0;entryX=0;entryY=0.5;entryDx=0;entryDy=0;" edge="1" parent="1" source="s9egA-n-uwzUiJ3B5Gmp-45" target="uvt4-mb7bjSLwskbyc6D-61">
          <mxGeometry relative="1" as="geometry" />
        </mxCell>
      </root>
    </mxGraphModel>
  </diagram>
</mxfile>
